<svg width="28" height="20" viewBox="0 0 28 20" fill="none" xmlns="http://www.w3.org/2000/svg">
<path d="M3 0C1.355 0 0 1.355 0 3V17C0 18.645 1.355 20 3 20H25C26.645 20 28 18.645 28 17V3C28 1.355 26.645 0 25 0H3ZM3 2H25C25.566 2 26 2.434 26 3V17C26 17.566 25.566 18 25 18H3C2.434 18 2 17.566 2 17V3C2 2.434 2.434 2 3 2ZM8.998 5C8.533 5 8.002 5.265 7.658 5.652C7.392 5.973 7.103 6.483 7.203 6.992C7.68 7.048 8.201 6.749 8.5 6.362C8.832 6.007 9.02 5.509 8.998 5ZM11 7V13H11.932V10.945H13.229C14.404 10.945 15.234 10.137 15.234 8.973C15.234 7.798 14.414 7 13.25 7H11ZM5.838 7.523C4.798 7.523 4 8.433 4 9.738C4 11.438 5.194 13 5.94 13C6.39 13 6.554 12.697 7.152 12.697C7.703 12.697 7.877 13 8.346 13C9.236 13 9.972 11.19 10 11.08C9.853 11.006 8.997 10.603 8.998 9.629C8.998 8.683 9.779 8.259 9.816 8.24C9.384 7.597 8.704 7.523 8.447 7.523C7.85 7.523 7.328 7.846 7.043 7.846C6.749 7.846 6.316 7.523 5.838 7.523ZM11.932 7.787H13.006C13.815 7.787 14.281 8.219 14.281 8.973C14.281 9.727 13.815 10.17 13.006 10.17H11.932V7.787ZM17.43 8.531C16.444 8.531 15.711 9.097 15.69 9.873H16.531C16.598 9.507 16.941 9.263 17.406 9.263C17.982 9.263 18.295 9.53 18.295 10.018V10.35L17.131 10.428C16.056 10.495 15.467 10.938 15.467 11.703C15.467 12.479 16.066 13 16.93 13C17.517 13 18.062 12.7 18.305 12.234H18.326V12.955H19.191V9.963C19.191 9.098 18.494 8.531 17.43 8.531ZM19.574 8.588L21.148 12.967L21.07 13.232C20.926 13.676 20.693 13.854 20.283 13.854C20.206 13.854 20.063 13.842 20.008 13.842V14.562C20.064 14.573 20.294 14.584 20.361 14.584C21.271 14.584 21.703 14.23 22.081 13.188L23.709 8.588H22.766L21.67 12.135H21.646L20.551 8.588H19.574ZM18.294 10.98V11.314H18.293C18.293 11.879 17.817 12.277 17.186 12.277C16.686 12.277 16.377 12.046 16.377 11.68C16.377 11.303 16.676 11.08 17.264 11.047L18.294 10.98Z" fill="black"/>
</svg>
