<svg width="26" height="29" viewBox="0 0 26 29" fill="none" xmlns="http://www.w3.org/2000/svg">
<g filter="url(#filter0_d_22_914)">
<path d="M19.3333 11.2864V9.41379H18V11.5862C18 11.7782 18.0703 11.9624 18.1953 12.0982L20 14.0584V15.2069H5.33333V14.0584L7.138 12.0982C7.26303 11.9624 7.3333 11.7782 7.33333 11.5862V8.68966C7.33148 7.67209 7.57687 6.67202 8.04472 5.79044C8.51258 4.90886 9.18633 4.177 9.99793 3.66878C10.8095 3.16056 11.7302 2.89397 12.667 2.89596C13.6038 2.89794 14.5236 3.16842 15.3333 3.68007V2.06162C14.6987 1.75641 14.0238 1.56188 13.3333 1.48521V0H12V1.48448C10.3564 1.66619 8.83317 2.50343 7.72491 3.8343C6.61665 5.16517 6.00207 6.89512 6 8.68966V11.2864L4.19533 13.2467C4.0703 13.3824 4.00004 13.5666 4 13.7586V15.931C4 16.1231 4.07024 16.3073 4.19526 16.4431C4.32029 16.5789 4.48986 16.6552 4.66667 16.6552H9.33333V17.3793C9.33333 18.3396 9.68452 19.2605 10.3096 19.9395C10.9348 20.6185 11.7826 21 12.6667 21C13.5507 21 14.3986 20.6185 15.0237 19.9395C15.6488 19.2605 16 18.3396 16 17.3793V16.6552H20.6667C20.8435 16.6552 21.013 16.5789 21.1381 16.4431C21.2631 16.3073 21.3333 16.1231 21.3333 15.931V13.7586C21.3333 13.5666 21.263 13.3824 21.138 13.2467L19.3333 11.2864ZM14.6667 17.3793C14.6667 17.9555 14.456 18.508 14.0809 18.9154C13.7058 19.3228 13.1971 19.5517 12.6667 19.5517C12.1362 19.5517 11.6275 19.3228 11.2525 18.9154C10.8774 18.508 10.6667 17.9555 10.6667 17.3793V16.6552H14.6667V17.3793Z" fill="#435B71"/>
<path d="M19.3332 7.96547C20.8059 7.96547 21.9998 6.66864 21.9998 5.06891C21.9998 3.46919 20.8059 2.17236 19.3332 2.17236C17.8604 2.17236 16.6665 3.46919 16.6665 5.06891C16.6665 6.66864 17.8604 7.96547 19.3332 7.96547Z" fill="#AF4E42"/>
</g>
<defs>
<filter id="filter0_d_22_914" x="0" y="0" width="26" height="29" filterUnits="userSpaceOnUse" color-interpolation-filters="sRGB">
<feFlood flood-opacity="0" result="BackgroundImageFix"/>
<feColorMatrix in="SourceAlpha" type="matrix" values="0 0 0 0 0 0 0 0 0 0 0 0 0 0 0 0 0 0 127 0" result="hardAlpha"/>
<feOffset dy="4"/>
<feGaussianBlur stdDeviation="2"/>
<feComposite in2="hardAlpha" operator="out"/>
<feColorMatrix type="matrix" values="0 0 0 0 0 0 0 0 0 0 0 0 0 0 0 0 0 0 0.25 0"/>
<feBlend mode="normal" in2="BackgroundImageFix" result="effect1_dropShadow_22_914"/>
<feBlend mode="normal" in="SourceGraphic" in2="effect1_dropShadow_22_914" result="shape"/>
</filter>
</defs>
</svg>
