<svg width="45" height="45" viewBox="0 0 45 45" fill="none" xmlns="http://www.w3.org/2000/svg">
<path d="M16.875 11.25C18.9461 11.25 20.625 9.57107 20.625 7.5C20.625 5.42893 18.9461 3.75 16.875 3.75C14.8039 3.75 13.125 5.42893 13.125 7.5C13.125 9.57107 14.8039 11.25 16.875 11.25Z" fill="#435B71"/>
<path d="M31.8375 27.7575C31.7526 27.3326 31.5231 26.9502 31.1881 26.6754C30.8531 26.4006 30.4333 26.2503 30 26.25H22.2506L21.4463 20.625H30V16.875H20.9119L20.6063 14.7337C20.5422 14.2871 20.3192 13.8786 19.9783 13.5831C19.6373 13.2876 19.2012 13.1249 18.75 13.125H16.875C16.6065 13.1259 16.3414 13.1842 16.0974 13.2961C15.8533 13.408 15.6361 13.5709 15.4602 13.7737C15.2844 13.9766 15.154 14.2147 15.0778 14.4722C15.0017 14.7296 14.9816 15.0004 15.0188 15.2663L16.6631 26.7825C16.7946 27.6743 17.2415 28.4894 17.9227 29.0797C18.6039 29.6701 19.4742 29.9966 20.3756 30H28.4625L30.0356 37.8675C30.2119 38.7431 30.9806 39.375 31.875 39.375H37.5V35.625H33.4106L31.8375 27.7575Z" fill="#435B71"/>
<path d="M23.4562 32.8125C22.0706 35.58 19.2375 37.5 15.9375 37.5C13.7005 37.4975 11.5558 36.6078 9.97403 35.026C8.39223 33.4442 7.50248 31.2995 7.5 29.0625C7.50315 27.3825 8.00745 25.7416 8.94837 24.3497C9.88928 22.9579 11.224 21.8784 12.7819 21.2494L12.24 17.4525C7.32187 19.0219 3.75 23.6325 3.75 29.0625C3.75 35.7825 9.2175 41.25 15.9375 41.25C18.0277 41.2471 20.0821 40.7064 21.9029 39.6799C23.7238 38.6534 25.2498 37.1756 26.3344 35.3888L25.8206 32.8125H23.4562Z" fill="#435B71"/>
</svg>
