<svg width="45" height="40" viewBox="0 0 45 40" fill="none" xmlns="http://www.w3.org/2000/svg">
<path fill-rule="evenodd" clip-rule="evenodd" d="M14.775 5.64998L12.375 3.09998L3.75 9.51664L6.16875 12.0666L14.775 5.64998ZM41.25 9.53331L32.625 3.09998L30.2062 5.64998L38.8312 12.0833L41.25 9.53331ZM20.625 13.3333H23.4375V22.0833L30.9375 26.0333L29.5312 28.0833L20.625 23.3333V13.3333ZM22.5 6.66664C13.1813 6.66664 5.625 13.3833 5.625 21.6666C5.625 29.95 13.1625 36.6666 22.5 36.6666C31.8188 36.6666 39.375 29.95 39.375 21.6666C39.375 13.3833 31.8188 6.66664 22.5 6.66664ZM9.375 21.6666C9.375 28.1166 15.2438 33.3333 22.5 33.3333C29.7563 33.3333 35.625 28.1166 35.625 21.6666C35.625 15.2166 29.7563 9.99998 22.5 9.99998C15.2438 9.99998 9.375 15.2166 9.375 21.6666Z" fill="#435B71"/>
</svg>
