<svg width="24" height="23" viewBox="0 0 24 23" fill="none" xmlns="http://www.w3.org/2000/svg">
<g clip-path="url(#clip0_33_543)">
<rect width="24" height="23" fill="white" fill-opacity="0.1"/>
<path d="M0.51209 11.3624C0.511527 13.2948 1.04253 15.1817 2.05221 16.8449L0.415527 22.5273L6.53103 21.0025C8.22249 21.8781 10.1177 22.3369 12.0435 22.337H12.0486C18.4062 22.337 23.5815 17.4176 23.5842 11.371C23.5855 8.44103 22.3866 5.68584 20.2084 3.61299C18.0306 1.54031 15.1342 0.398249 12.0481 0.396912C5.68972 0.396912 0.514809 5.31606 0.512184 11.3624" fill="url(#paint0_linear_33_543)" fill-opacity="0.75"/>
<path d="M0.100313 11.3588C0.0996563 13.3608 0.649687 15.3151 1.69537 17.0378L0 22.924L6.33478 21.3445C8.08022 22.2495 10.0454 22.7266 12.0451 22.7273H12.0502C18.636 22.7273 23.9972 17.6309 24 11.3679C24.0011 8.3326 22.7591 5.47837 20.5031 3.33126C18.2468 1.18441 15.2468 0.00124806 12.0502 0C5.46337 0 0.103031 5.09566 0.100406 11.3588H0.100313ZM3.87281 16.7411L3.63628 16.3841C2.64197 14.8807 2.11716 13.1434 2.11791 11.3595C2.12006 6.15375 6.57544 1.91845 12.054 1.91845C14.7071 1.91952 17.2005 2.90299 19.0759 4.68736C20.9512 6.47191 21.9831 8.84412 21.9824 11.3672C21.98 16.5729 17.5245 20.8088 12.0502 20.8088H12.0463C10.2638 20.8079 8.51569 20.3527 6.99113 19.4925L6.62831 19.2879L2.86912 20.2251L3.87281 16.7411V16.7411Z" fill="url(#paint1_linear_33_543)" fill-opacity="0.75"/>
<path d="M9.06334 6.6101C8.83965 6.13735 8.60425 6.12781 8.39153 6.11952C8.21734 6.11239 8.01821 6.11292 7.81928 6.11292C7.62015 6.11292 7.29662 6.18415 7.02315 6.46809C6.7494 6.75229 5.97803 7.43908 5.97803 8.83593C5.97803 10.2329 7.048 11.5828 7.19715 11.7724C7.3465 11.9617 9.26275 14.92 12.2976 16.058C14.8199 17.0038 15.3332 16.8157 15.8806 16.7683C16.4281 16.721 17.6472 16.0816 17.8959 15.4187C18.1448 14.7558 18.1448 14.1875 18.0702 14.0688C17.9956 13.9505 17.7964 13.8794 17.4978 13.7375C17.1992 13.5955 15.7312 12.9086 15.4576 12.8139C15.1838 12.7192 14.9848 12.6719 14.7857 12.9562C14.5865 13.2401 14.0147 13.8794 13.8405 14.0688C13.6664 14.2586 13.4921 14.2822 13.1936 14.1402C12.8948 13.9977 11.9332 13.6983 10.7924 12.7311C9.90475 11.9785 9.3055 11.0492 9.13131 10.7649C8.95712 10.4811 9.11265 10.3272 9.26237 10.1857C9.39653 10.0585 9.56106 9.85417 9.7105 9.68844C9.85937 9.52263 9.90906 9.40433 10.0086 9.21498C10.1083 9.02545 10.0584 8.85964 9.98387 8.71763C9.90906 8.57562 9.32884 7.17155 9.06334 6.61019" fill="white" fill-opacity="0.75"/>
</g>
<defs>
<linearGradient id="paint0_linear_33_543" x1="11.9999" y1="22.5273" x2="11.9999" y2="0.396912" gradientUnits="userSpaceOnUse">
<stop stop-color="#3C7D08"/>
<stop offset="1" stop-color="#60D669"/>
</linearGradient>
<linearGradient id="paint1_linear_33_543" x1="12" y1="22.924" x2="12" y2="0" gradientUnits="userSpaceOnUse">
<stop stop-color="#F9F9F9"/>
<stop offset="1" stop-color="white"/>
</linearGradient>
<clipPath id="clip0_33_543">
<rect width="24" height="23" fill="white"/>
</clipPath>
</defs>
</svg>
