<svg width="119" height="24" viewBox="0 0 119 24" fill="none" xmlns="http://www.w3.org/2000/svg">
<path d="M107 15.0666L111.947 18.6666L110.053 12.8533L115 9.33331H108.933L107 3.33331L105.067 9.33331H99L103.947 12.8533L102.053 18.6666L107 15.0666Z" fill="#F3CC56"/>
<path d="M36 15.0666L40.9467 18.6666L39.0533 12.8533L44 9.33331H37.9333L36 3.33331L34.0667 9.33331H28L32.9467 12.8533L31.0533 18.6666L36 15.0666Z" fill="#F3CC56"/>
<path d="M60 15.0666L64.9467 18.6666L63.0533 12.8533L68 9.33331H61.9333L60 3.33331L58.0667 9.33331H52L56.9467 12.8533L55.0533 18.6666L60 15.0666Z" fill="#F3CC56"/>
<path d="M84 15.0666L88.9467 18.6666L87.0533 12.8533L92 9.33331H85.9333L84 3.33331L82.0667 9.33331H76L80.9467 12.8533L79.0533 18.6666L84 15.0666Z" fill="#F3CC56"/>
<path d="M12 15.0666L16.9467 18.6666L15.0533 12.8533L20 9.33331H13.9333L12 3.33331L10.0667 9.33331H4L8.94667 12.8533L7.05333 18.6666L12 15.0666Z" fill="#F3CC56"/>
</svg>
