<svg width="34" height="12" viewBox="0 0 34 12" fill="none" xmlns="http://www.w3.org/2000/svg">
<g clip-path="url(#clip0_33_566)">
<path d="M17.584 3.82094C17.5646 5.48591 18.947 6.41497 19.9884 6.9674C21.0584 7.53415 21.4177 7.89762 21.4135 8.40451C21.4055 9.18017 20.56 9.52253 19.7689 9.53583C18.3886 9.55911 17.586 9.13015 16.9479 8.80571L16.4507 11.3386C17.0908 11.6597 18.2762 11.9397 19.5054 11.952C22.3907 11.952 24.2784 10.4016 24.2886 7.99767C24.2999 4.94677 20.4121 4.77791 20.4387 3.41424C20.4478 3.00075 20.8103 2.5595 21.6045 2.4473C21.9976 2.39063 23.0828 2.34726 24.3132 2.96403L24.7961 0.513425C24.1344 0.25116 23.284 2.67029e-05 22.2252 2.67029e-05C19.5095 2.67029e-05 17.5994 1.57159 17.584 3.82094ZM29.4363 0.211111C28.9094 0.211111 28.4654 0.545665 28.2673 1.05906L24.1457 11.772H27.0289L27.6027 10.0459H31.1259L31.4588 11.772H34L31.7824 0.211111H29.4363ZM29.8396 3.33415L30.6717 7.6754H28.3929L29.8396 3.33415ZM14.0882 0.211256L11.8155 11.7719H14.563L16.8346 0.210967H14.0882M10.0238 0.210967L7.16404 8.07993L6.00724 1.38928C5.87151 0.642388 5.33548 0.211111 4.74021 0.211111H0.0654766L0 0.546822C0.959703 0.77352 2.05009 1.13916 2.7107 1.53039C3.11498 1.76938 3.23027 1.97829 3.36308 2.5462L5.55409 11.772H8.4575L12.9088 0.211111H10.0238" fill="url(#paint0_linear_33_566)"/>
</g>
<defs>
<linearGradient id="paint0_linear_33_566" x1="15.6312" y1="12.1918" x2="16.0077" y2="-0.0812928" gradientUnits="userSpaceOnUse">
<stop stop-color="#222357"/>
<stop offset="1" stop-color="#254AA5"/>
</linearGradient>
<clipPath id="clip0_33_566">
<rect width="34" height="12" fill="white"/>
</clipPath>
</defs>
</svg>
